PathFileType	4	(X/Y/Z)	C:/Users/beibeiliu/ov580/test_trc/User3\sequence.27_training_dense_left.trc
DataRate	CameraRate	NumFrames	NumMarkers	Units	OrigDataRate	OrigDataStartFrame	OrigNumFrames
120	120	13	19	mm	120	1	62
Frame#	Time	ThumbCMC			ThumbMCP			ThumbIP			ThumbTip			IndexMCP			IndexPIP			IndexTip			MiddleMCP			MiddlePIP			MiddleTip			RingMCP			RingPIP			RingTip			PinkyMCP			PinkyPIP			PinkyTip			BackHand1			BackHand2			BackHand3	
		X0	Y0	Z0	X1	Y1	Z1	X2	Y2	Z2	X3	Y3	Z3	X4	Y4	Z4	X5	Y5	Z5	X6	Y6	Z6	X7	Y7	Z7	X8	Y8	Z8	X9	Y9	Z9	X10	Y10	Z10	X11	Y11	Z11	X12	Y12	Z12	X13	Y13	Z13	X14	Y14	Z14	X15	Y15	Z15	X16	Y16	Z16	X17	Y17	Z17	X18	Y18	Z18	
0	0	-119.863	0.0980098	33.1553	-117.666	-16.9703	-1.21809	-128.354	-26.3939	-31.5693	-160.308	-27.7621	-41.7481	-137.971	43.1099	-29.1183	-131.932	47.9761	-53.8269	-129.456	54.9428	-82.794	-156.425	21.4954	-40.0869	-150.189	-9.6088	-50.0285	-148.137	-18.0815	-11.2379	-171.618	11.7877	-35.6436	-166.596	-15.9691	-42.2832	-159.772	-26.7269	-10.1465	-195.563	19.1362	-20.4059	-197.262	20.7271	-37.8647	-197.349	27.6203	-60.6787	-179.267	32.4375	20.0079	-180.044	22.2554	54.3147	-147.68	33.3432	36.4995	
1	0.00833333	-120.739	-7.65467	31.4304	-115.379	-24.2486	-1.80625	-129.888	-32.5882	-27.2512	-157.457	-37.1768	-38.869	-137.953	33.7087	-31.5183	-133.21	38.9783	-58.8477	-130.778	43.1375	-85.0631	-154.858	10.5652	-42.8684	-148.85	-17.4301	-51.6898	-147.641	-27.0054	-11.2135	-175.654	1.85567	-34.8782	-164.699	-25.7637	-41.2971	-157.249	-33.91	-4.95435	-192.633	7.88106	-16.9618	-196.853	12.1524	-43.2827	-199.801	17.5922	-59.8848	-180.601	20.7418	22.4996	-178.655	15.7051	51.4202	-146.21	24.5361	33.7819	
2	0.0166667	-119.711	-15.762	34.3328	-114.068	-31.3758	2.5689	-128.347	-41.1866	-30.1904	-151.367	-45.0867	-35.6052	-132.438	27.0106	-34.147	-132.758	29.9714	-56.1377	-126.409	34.7865	-80.4313	-156.895	4.48244	-39.4309	-148.236	-25.5018	-50.1295	-143.636	-34.728	-12.1184	-170.386	-3.66401	-32.0232	-162.847	-36.2873	-37.3261	-157.56	-41.3273	-4.90232	-193.343	0.994876	-17.3024	-196.475	2.7082	-40.2841	-197.41	7.14966	-59.8906	-180.608	13.5634	23.0114	-176.943	6.62978	51.5941	-146.839	15.6338	37.2144	
3	0.025	-117.043	-19.5353	29.7772	-115.816	-35.4463	0.745739	-127.579	-45.6213	-27.4167	-149.679	-51.4538	-36.5162	-135.764	20.5213	-33.5093	-129.664	25.9335	-59.2746	-132.795	27.1121	-79.6579	-155.041	-0.0585071	-37.9109	-148.378	-32.533	-48.7753	-146.325	-39.8605	-11.4279	-169.875	-10.3921	-34.0157	-164.178	-41.2699	-38.1202	-156.062	-48.6787	-9.8	-189.069	-5.89146	-15.1798	-192.532	-1.93631	-38.635	-198.48	2.88501	-58.3923	-178.847	7.8722	20.3301	-180.698	1.04077	51.0448	-145.641	11.7848	34.6589	
4	0.0333333	-121.046	-22.7163	33.6525	-115.803	-37.7025	-1.5111	-124.802	-49.4098	-28.4576	-151.72	-54.4192	-39.2177	-133.726	18.0704	-30.7392	-132.102	21.9322	-54.9867	-129.521	25.5621	-79.8454	-153.14	-4.2007	-43.7112	-145.818	-36.0468	-47.415	-143.699	-43.3489	-12.83	-174.889	-14.8316	-33.1543	-162.974	-44.8346	-38.2541	-157.493	-49.5783	-5.94141	-194.711	-8.77772	-18.5071	-192.053	-5.78629	-37.7253	-199.251	-0.62844	-59.3373	-180.239	6.53224	21.0357	-175.592	0.783457	49.5202	-146.598	8.35789	33.9171	
5	0.0416667	-121.865	-22.2593	29.4022	-116.627	-37.9129	-0.521633	-129.311	-48.2201	-29.6039	-153.554	-55.5313	-39.3078	-134.429	16.3637	-30.2398	-136.736	19.7593	-59.7754	-132.025	22.9262	-80.7741	-158.366	-7.28701	-42.3104	-148.177	-36.197	-49.6028	-147.84	-44.2676	-12.1398	-176.623	-16.6827	-33.3378	-167.034	-46.9206	-37.3821	-160.262	-52.8782	-7.95863	-193.897	-9.52969	-17.7164	-193.96	-8.54419	-36.1994	-200.699	-5.98847	-59.7078	-177.9	4.76608	24.0168	-178.645	-2.11553	51.1151	-144.446	7.75075	34.7532	
6	0.05	-119.75	-22.3749	29.7731	-115.432	-39.4844	-1.8961	-127.961	-50.9598	-24.708	-152.145	-55.9721	-36.1961	-139.754	15.4384	-35.1462	-134.047	18.0376	-56.0439	-135.427	20.4489	-81.3044	-159.906	-8.81915	-42.5018	-148.942	-35.3811	-50.7806	-146.149	-45.429	-10.0651	-173.112	-15.3745	-31.1501	-167.145	-45.8414	-38.6969	-155.901	-52.6443	-5.02322	-196.673	-11.6745	-18.0204	-196.975	-9.52525	-41.6983	-201.018	-6.75739	-61.1042	-177.223	1.97975	23.9953	-180.627	-3.50997	53.0413	-148.633	7.84593	36.6595	
7	0.0583333	-119.579	-24.0087	35.0332	-114.811	-41.5239	1.71074	-127.457	-52.5448	-29.3458	-152.524	-59.6029	-38.4265	-139.648	14.0906	-33.61	-134.892	16.2785	-60.786	-137.63	17.6833	-81.4347	-158.724	-10.5301	-41.7161	-150.131	-38.2812	-48.952	-143.316	-44.592	-6.98535	-173.285	-18.0106	-31.8754	-169.325	-49.0724	-36.7086	-159.428	-55.6278	-6.43617	-196.609	-12.0067	-19.3523	-196.251	-11.7729	-37.3301	-200.15	-8.36128	-63.3148	-183.281	-0.528756	24.6684	-181.223	-4.6734	51.6557	-146.705	8.13886	36.2131	
8	0.0666667	-120.626	-25.1953	32.2704	-117.224	-41.9219	0.219961	-129.338	-52.6804	-24.8675	-155.987	-58.8142	-35.4542	-140.2	12.1044	-31.3837	-137.581	14.7877	-61.4557	-134.128	16.318	-86.4624	-158.983	-10.2	-38.7573	-151.619	-43.4328	-45.8374	-145.117	-47.0938	-8.36398	-175.115	-21.4565	-32.9783	-168.394	-50.9285	-36.6307	-155.334	-54.9929	-4.29407	-197.266	-15.8246	-14.5004	-196.609	-13.7078	-35.6232	-201.651	-10.2671	-60.4417	-180.994	-1.75717	23.0877	-181.526	-7.80999	54.6537	-148.392	4.09736	36.7334	
9	0.075	-121.326	-25.6244	33.9792	-112.883	-44.0772	-1.03874	-123.579	-55.7226	-26.5574	-151.407	-60.9439	-32.685	-138.028	11.5068	-33.1266	-138.59	13.2671	-56.9434	-136.867	15.5004	-83.6679	-155.997	-11.7437	-41.2009	-146.411	-42.3078	-47.8711	-142.871	-47.9679	-9.53408	-170.665	-21.3903	-34.38	-168.296	-51.5045	-37.8455	-156.087	-56.3781	-5.15986	-191.552	-16.2019	-13.8912	-196.39	-14.6463	-38.8812	-198.475	-11.9142	-59.9195	-182.651	-2.26765	23.4675	-180.694	-6.0415	50.5127	-146.389	4.37652	37.1082	
10	0.0833333	-117.148	-24.1733	30.7956	-112.041	-42.8279	-0.542522	-124.644	-55.11	-27.6013	-152.204	-61.0464	-36.6998	-137.925	11.1282	-34.9907	-133.336	14.0507	-59.043	-134.89	15.6082	-86.6901	-154.681	-12.6626	-43.2465	-145.229	-40.9407	-48.6286	-144.138	-48.3472	-10.3959	-174.358	-23.096	-32.7572	-165.102	-51.2191	-37.8859	-152.405	-55.8292	-4.09381	-189.346	-15.7642	-15.2388	-193.694	-13.549	-39.0944	-196.221	-12.3181	-60.4866	-180.005	-1.66286	22.9234	-177.44	-6.0863	48.4489	-146.277	5.62894	35.3191	
11	0.0916667	-118	-25.5111	32.3583	-107.588	-43.7222	-1.95522	-120.656	-55.098	-29.3979	-148.12	-59.4471	-35.7638	-134.211	12.3181	-36.6991	-131.377	14.8141	-62.719	-132.62	16.0284	-84.146	-153.034	-10.2021	-41.9073	-145.373	-42.2097	-49.5429	-140.741	-46.9931	-8.79894	-171.316	-20.4863	-32.4401	-160.57	-48.5795	-40.3067	-153.15	-57.7126	-8.16293	-185.946	-12.7242	-21.2697	-189.432	-13.6756	-38.2097	-196.494	-11.2424	-63.2459	-177.848	1.17448	20.1859	-177.324	-5.14228	49.6011	-140.641	5.186	31.8301	
12	0.1	-118.355	-22.9804	26.9407	-112.417	-41.5396	-1.82109	-119.644	-55.1149	-31.0766	-145.994	-60.4977	-42.6069	-133.32	13.3706	-39.1785	-129.373	15.4756	-63.793	-130.881	14.8533	-85.7515	-150.612	-9.52084	-45.3154	-144.049	-41.4742	-51.2126	-140.236	-49.526	-15.2752	-172.213	-19.8699	-36.04	-158.111	-48.8766	-42.1521	-151.308	-56.676	-10.9971	-189.278	-14.8623	-19.4226	-190.681	-13.9934	-39.484	-194.267	-9.20781	-65.2882	-172.827	0.91372	16.6496	-173.933	-5.30286	49.8066	-142.104	4.48393	32.6738	
